{
    "asset" : {
        "generator" : "Khronos glTF Blender I/O v0.9.36",
        "version" : "2.0"
    },
    "scene" : 0,
    "scenes" : [
        {
            "name" : "Scene",
            "nodes" : [
                0
            ]
        }
    ],
    "nodes" : [
        {
            "mesh" : 0,
            "name" : "rainier_controller_r_skm3"
        }
    ],
    "materials" : [
        {
            "doubleSided" : true,
            "name" : "rainier_controller_r_mi",
            "pbrMetallicRoughness" : {
                "baseColorTexture" : {
                    "index" : 0,
                    "texCoord" : 0
                },
                "metallicFactor" : 0,
                "roughnessFactor" : 0.5527864098548889
            }
        }
    ],
    "meshes" : [
        {
            "name" : "Mesh",
            "primitives" : [
                {
                    "attributes" : {
                        "POSITION" : 0,
                        "NORMAL" : 1,
                        "TEXCOORD_0" : 2,
                        "COLOR_0" : 3
                    },
                    "indices" : 4,
                    "material" : 0
                }
            ]
        }
    ],
    "textures" : [
        {
            "source" : 0
        }
    ],
    "images" : [
        {
            "mimeType" : "image/png",
            "name" : "BC_R",
            "uri" : "BC_R.png"
        }
    ],
    "accessors" : [
        {
            "bufferView" : 0,
            "componentType" : 5126,
            "count" : 5172,
            "max" : [
                0.038410596549510956,
                0.06102821230888367,
                0.07548648864030838
            ],
            "min" : [
                -0.05402543395757675,
                -0.0738137736916542,
                -0.03529537469148636
            ],
            "type" : "VEC3"
        },
        {
            "bufferView" : 1,
            "componentType" : 5126,
            "count" : 5172,
            "type" : "VEC3"
        },
        {
            "bufferView" : 2,
            "componentType" : 5126,
            "count" : 5172,
            "type" : "VEC2"
        },
        {
            "bufferView" : 3,
            "componentType" : 5126,
            "count" : 5172,
            "type" : "VEC4"
        },
        {
            "bufferView" : 4,
            "componentType" : 5123,
            "count" : 7362,
            "type" : "SCALAR"
        }
    ],
    "bufferViews" : [
        {
            "buffer" : 0,
            "byteLength" : 62064,
            "byteOffset" : 0
        },
        {
            "buffer" : 0,
            "byteLength" : 62064,
            "byteOffset" : 62064
        },
        {
            "buffer" : 0,
            "byteLength" : 41376,
            "byteOffset" : 124128
        },
        {
            "buffer" : 0,
            "byteLength" : 82752,
            "byteOffset" : 165504
        },
        {
            "buffer" : 0,
            "byteLength" : 14724,
            "byteOffset" : 248256
        }
    ],
    "buffers" : [
        {
            "byteLength" : 262980,
            "uri" : "jedi_right.bin"
        }
    ]
}
