{
    "asset" : {
        "generator" : "Khronos glTF Blender I/O v0.9.36",
        "version" : "2.0"
    },
    "scene" : 0,
    "scenes" : [
        {
            "name" : "Scene",
            "nodes" : [
                0
            ]
        }
    ],
    "nodes" : [
        {
            "mesh" : 0,
            "name" : "rainier_controller_l_skm2"
        }
    ],
    "materials" : [
        {
            "doubleSided" : true,
            "name" : "rainier_controller_l_mi",
            "pbrMetallicRoughness" : {
                "baseColorTexture" : {
                    "index" : 0,
                    "texCoord" : 0
                },
                "metallicFactor" : 0,
                "roughnessFactor" : 0.5527864098548889
            }
        }
    ],
    "meshes" : [
        {
            "name" : "Mesh",
            "primitives" : [
                {
                    "attributes" : {
                        "POSITION" : 0,
                        "NORMAL" : 1,
                        "TEXCOORD_0" : 2,
                        "COLOR_0" : 3
                    },
                    "indices" : 4,
                    "material" : 0
                }
            ]
        }
    ],
    "textures" : [
        {
            "source" : 0
        }
    ],
    "images" : [
        {
            "mimeType" : "image/png",
            "name" : "BC_L",
            "uri" : "BC_L.png"
        }
    ],
    "accessors" : [
        {
            "bufferView" : 0,
            "componentType" : 5126,
            "count" : 5180,
            "max" : [
                0.05425165221095085,
                0.06207205727696419,
                0.07651257514953613
            ],
            "min" : [
                -0.03806551545858383,
                -0.07187838107347488,
                -0.0353737510740757
            ],
            "type" : "VEC3"
        },
        {
            "bufferView" : 1,
            "componentType" : 5126,
            "count" : 5180,
            "type" : "VEC3"
        },
        {
            "bufferView" : 2,
            "componentType" : 5126,
            "count" : 5180,
            "type" : "VEC2"
        },
        {
            "bufferView" : 3,
            "componentType" : 5126,
            "count" : 5180,
            "type" : "VEC4"
        },
        {
            "bufferView" : 4,
            "componentType" : 5123,
            "count" : 7362,
            "type" : "SCALAR"
        }
    ],
    "bufferViews" : [
        {
            "buffer" : 0,
            "byteLength" : 62160,
            "byteOffset" : 0
        },
        {
            "buffer" : 0,
            "byteLength" : 62160,
            "byteOffset" : 62160
        },
        {
            "buffer" : 0,
            "byteLength" : 41440,
            "byteOffset" : 124320
        },
        {
            "buffer" : 0,
            "byteLength" : 82880,
            "byteOffset" : 165760
        },
        {
            "buffer" : 0,
            "byteLength" : 14724,
            "byteOffset" : 248640
        }
    ],
    "buffers" : [
        {
            "byteLength" : 263364,
            "uri" : "jedi_left.bin"
        }
    ]
}
